<?xml version="1.0" encoding="utf-8"?>
<!-- Generator: Adobe Illustrator 18.0.0, SVG Export Plug-In . SVG Version: 6.00 Build 0)  -->
<!DOCTYPE svg PUBLIC "-//W3C//DTD SVG 1.1//EN" "http://www.w3.org/Graphics/SVG/1.1/DTD/svg11.dtd">
<svg version="1.1" id="Layer_1" xmlns="http://www.w3.org/2000/svg" xmlns:xlink="http://www.w3.org/1999/xlink" x="0px" y="0px"
	 viewBox="0 0 66 65.3" enable-background="new 0 0 66 65.3" xml:space="preserve">
<g>
	<polygon opacity="0.3" fill="#3B94D1" points="56,36.3 10,36.3 3,55.3 63,55.3 	"/>
	<line opacity="0.5" fill="none" stroke="#FFFFFF" stroke-width="2" stroke-miterlimit="10" x1="4" y1="52.3" x2="62" y2="52.3"/>
	
		<line opacity="0.5" fill="none" stroke="#FFFFFF" stroke-width="2" stroke-miterlimit="10" x1="9.1" y1="39.3" x2="56.9" y2="39.3"/>
	
		<rect x="10" y="7.3" fill="none" stroke="#3B94D1" stroke-width="4" stroke-linecap="round" stroke-linejoin="round" stroke-miterlimit="10" width="46" height="29"/>
	
		<polyline fill="none" stroke="#3B94D1" stroke-width="4" stroke-linecap="round" stroke-linejoin="round" stroke-miterlimit="10" points="
		10,55.3 10,61.3 56,61.3 56,55.3 	"/>
	
		<polygon fill="none" stroke="#3B94D1" stroke-width="4" stroke-linecap="round" stroke-linejoin="round" stroke-miterlimit="10" points="
		56,36.3 10,36.3 3,55.3 63,55.3 	"/>
	
		<line fill="none" stroke="#3B94D1" stroke-width="2" stroke-linecap="round" stroke-linejoin="round" stroke-miterlimit="10" x1="10" y1="13.3" x2="56" y2="13.3"/>
	
		<line fill="none" stroke="#3B94D1" stroke-width="2" stroke-linecap="round" stroke-linejoin="round" stroke-miterlimit="10" x1="16" y1="33.3" x2="16" y2="39.3"/>
	
		<line fill="none" stroke="#3B94D1" stroke-width="2" stroke-linecap="round" stroke-linejoin="round" stroke-miterlimit="10" x1="50" y1="33.3" x2="50" y2="39.3"/>
	
		<line fill="none" stroke="#3B94D1" stroke-width="4" stroke-linecap="round" stroke-linejoin="round" stroke-miterlimit="10" x1="16" y1="3.3" x2="16" y2="7.3"/>
	
		<line fill="none" stroke="#3B94D1" stroke-width="4" stroke-linecap="round" stroke-linejoin="round" stroke-miterlimit="10" x1="50" y1="3.3" x2="50" y2="7.3"/>
	<g>
		
			<line fill="none" stroke="#3B94D1" stroke-width="2" stroke-linecap="round" stroke-linejoin="round" stroke-miterlimit="10" x1="21.5" y1="20.3" x2="26.5" y2="20.3"/>
		
			<line fill="none" stroke="#3B94D1" stroke-width="2" stroke-linecap="round" stroke-linejoin="round" stroke-miterlimit="10" x1="30.5" y1="20.3" x2="35.5" y2="20.3"/>
		
			<line fill="none" stroke="#3B94D1" stroke-width="2" stroke-linecap="round" stroke-linejoin="round" stroke-miterlimit="10" x1="39.5" y1="20.3" x2="44.5" y2="20.3"/>
	</g>
	<g>
		
			<line fill="none" stroke="#3B94D1" stroke-width="2" stroke-linecap="round" stroke-linejoin="round" stroke-miterlimit="10" x1="21.5" y1="26.3" x2="26.5" y2="26.3"/>
		
			<line fill="none" stroke="#3B94D1" stroke-width="2" stroke-linecap="round" stroke-linejoin="round" stroke-miterlimit="10" x1="30.5" y1="26.3" x2="35.5" y2="26.3"/>
		
			<line fill="none" stroke="#3B94D1" stroke-width="2" stroke-linecap="round" stroke-linejoin="round" stroke-miterlimit="10" x1="39.5" y1="26.3" x2="44.5" y2="26.3"/>
	</g>
</g>
<g display="none">
	<path display="inline" opacity="0.3" fill="#9898A8" d="M11.7,46.8h34c-4.4,0-8,3.6-8,8s3.6,8,8,8h-25h-9c-4.4,0-8-3.6-8-8
		S7.3,46.8,11.7,46.8"/>
	
		<line display="inline" opacity="0.5" fill="none" stroke="#FFFFFF" stroke-width="2" stroke-miterlimit="10" x1="5.7" y1="49.8" x2="39.7" y2="49.8"/>
	
		<line display="inline" opacity="0.5" fill="none" stroke="#FFFFFF" stroke-width="2" stroke-miterlimit="10" x1="5.7" y1="59.8" x2="39.7" y2="59.8"/>
	
		<path display="inline" fill="none" stroke="#9898A8" stroke-width="4" stroke-linecap="round" stroke-linejoin="round" stroke-miterlimit="10" d="
		M11.7,46.8h34c-4.4,0-8,3.6-8,8s3.6,8,8,8h-25h-9c-4.4,0-8-3.6-8-8S7.3,46.8,11.7,46.8"/>
	
		<path display="inline" fill="none" stroke="#9898A8" stroke-width="4" stroke-linecap="round" stroke-linejoin="round" stroke-miterlimit="10" d="
		M53.7,23.8v22v9c0,4.4-3.6,8-8,8"/>
	
		<polyline display="inline" fill="none" stroke="#9898A8" stroke-width="4" stroke-linecap="round" stroke-linejoin="round" stroke-miterlimit="10" points="
		12.7,46.8 12.7,2.8 53.7,2.8 53.7,6.8 	"/>
	
		<line display="inline" fill="none" stroke="#9898A8" stroke-width="4" stroke-linecap="round" stroke-linejoin="round" stroke-miterlimit="10" x1="27.2" y1="35.5" x2="63.7" y2="2.8"/>
	
		<path display="inline" fill="none" stroke="#9898A8" stroke-width="4" stroke-linecap="round" stroke-linejoin="round" stroke-miterlimit="10" d="
		M53.3,24.2c3.7-3.3,5.9-17.4,5.9-17.4S45,7.5,41.3,10.8c-3.7,3.3-4,9-0.7,12.7C43.9,27.2,49.6,27.5,53.3,24.2z"/>
	
		<line display="inline" fill="none" stroke="#9898A8" stroke-width="2" stroke-linecap="round" stroke-linejoin="round" stroke-miterlimit="10" x1="46.6" y1="18.2" x2="47.1" y2="8.3"/>
	
		<line display="inline" fill="none" stroke="#9898A8" stroke-width="2" stroke-linecap="round" stroke-linejoin="round" stroke-miterlimit="10" x1="46.6" y1="18.2" x2="56.4" y2="18.7"/>
	
		<line display="inline" fill="none" stroke="#9898A8" stroke-width="2" stroke-linecap="round" stroke-linejoin="round" stroke-miterlimit="10" x1="19.7" y1="22.8" x2="19.7" y2="2.8"/>
</g>
<g display="none">
	<rect x="18.7" y="34.8" display="inline" opacity="0.3" fill="#9898A8" width="28" height="28"/>
	
		<polyline display="inline" fill="none" stroke="#9898A8" stroke-width="4" stroke-linecap="round" stroke-linejoin="round" stroke-miterlimit="10" points="
		46.7,47.8 62.7,47.8 62.7,15.8 2.7,15.8 2.7,47.8 18.7,47.8 	"/>
	
		<rect x="18.7" y="34.8" display="inline" fill="none" stroke="#9898A8" stroke-width="4" stroke-linecap="round" stroke-linejoin="round" stroke-miterlimit="10" width="28" height="28"/>
	
		<polyline display="inline" fill="none" stroke="#9898A8" stroke-width="4" stroke-linecap="round" stroke-linejoin="round" stroke-miterlimit="10" points="
		46.7,15.8 46.7,2.8 18.7,2.8 18.7,15.8 	"/>
	
		<polyline display="inline" fill="none" stroke="#9898A8" stroke-width="2" stroke-linecap="round" stroke-linejoin="round" stroke-miterlimit="10" points="
		15.7,15.8 15.7,24.8 49.7,24.8 49.7,15.8 	"/>
	
		<line display="inline" opacity="0.5" fill="none" stroke="#FFFFFF" stroke-width="2" stroke-linecap="square" stroke-miterlimit="10" x1="21.7" y1="59.8" x2="43.7" y2="59.8"/>
	
		<line display="inline" fill="none" stroke="#9898A8" stroke-width="2" stroke-linecap="round" stroke-linejoin="round" stroke-miterlimit="10" x1="18.7" y1="7.8" x2="46.7" y2="7.8"/>
	
		<line display="inline" fill="none" stroke="#9898A8" stroke-width="2" stroke-linecap="round" stroke-linejoin="round" stroke-miterlimit="10" x1="23.7" y1="62.8" x2="23.7" y2="44.8"/>
</g>
</svg>
