<svg id="图层_1" data-name="图层 1" xmlns="http://www.w3.org/2000/svg" xmlns:xlink="http://www.w3.org/1999/xlink" viewBox="0 0 24 22.78"><defs><style>.cls-1{fill:url(#未命名的渐变_2);}.cls-2{fill:url(#未命名的渐变_2-2);}.cls-3{fill:url(#未命名的渐变_2-3);}</style><linearGradient id="未命名的渐变_2" y1="11.4" x2="16.8" y2="11.4" gradientUnits="userSpaceOnUse"><stop offset="0" stop-color="#DC143C"/><stop offset="1" stop-color="#DC143C"/></linearGradient><linearGradient id="未命名的渐变_2-2" x1="18.5" y1="11.97" x2="24" y2="11.97" gradientTransform="translate(-2.24 18.53) rotate(-45)" xlink:href="#未命名的渐变_2"/><linearGradient id="未命名的渐变_2-3" x1="18.5" y1="11.97" x2="24" y2="11.97" gradientTransform="translate(27.81 35.47) rotate(-135)" xlink:href="#未命名的渐变_2"/></defs><title>静音-黄</title><path class="cls-1" d="M14,22.79a2.85,2.85,0,0,1-1.62-.51L6.14,17.73A2,2,0,0,0,5,17.37H2.82A2.82,2.82,0,0,1,0,14.55H0V8.24A2.82,2.82,0,0,1,2.82,5.42H5A2,2,0,0,0,6.19,5L12.36.52h0a2.81,2.81,0,0,1,3.37.1A3,3,0,0,1,16.8,2.9v17a2.82,2.82,0,0,1-2.86,2.88ZM2.82,7.46A.78.78,0,0,0,2,8.2v6.35a.78.78,0,0,0,.78.78H5a4.15,4.15,0,0,1,2.36.74l6.21,4.55a.75.75,0,0,0,.43.13.76.76,0,0,0,.55-.23.84.84,0,0,0,.23-.62V2.9a.9.9,0,0,0-.32-.72.77.77,0,0,0-.93,0L7.34,6.71A4,4,0,0,1,5,7.46Z" transform="translate(0 -0.01)"/><rect class="cls-2" x="20.52" y="8.39" width="1.46" height="7.17" rx="0.73" transform="translate(14.69 -11.53) rotate(45)"/><rect class="cls-3" x="20.52" y="8.39" width="1.46" height="7.17" rx="0.73" transform="translate(44.74 5.4) rotate(135)"/></svg>