<svg id="图层_1" data-name="图层 1" xmlns="http://www.w3.org/2000/svg" xmlns:xlink="http://www.w3.org/1999/xlink" viewBox="0 0 16.58 24.88"><defs><style>.cls-1{fill:url(#未命名的渐变_8);}.cls-2{fill:url(#未命名的渐变_8-2);}</style><linearGradient id="未命名的渐变_8" x1="6.67" y1="14.56" x2="10.82" y2="14.56" gradientUnits="userSpaceOnUse"><stop offset="0" stop-color="#3399FF"/><stop offset="1" stop-color="#3399FF"/></linearGradient><linearGradient id="未命名的渐变_8-2" x1="19.11" y1="14.56" x2="23.25" y2="14.56" xlink:href="#未命名的渐变_8"/></defs><title>暂停-橙</title><path class="cls-1" d="M8.74,2.12h0A1.84,1.84,0,0,1,10.82,4.2V24.93A1.83,1.83,0,0,1,8.74,27h0a1.83,1.83,0,0,1-2.07-2.07V4.2A1.84,1.84,0,0,1,8.74,2.12Z" transform="translate(-6.67 -2.12)"/><path class="cls-2" d="M21.18,2.12h0A1.84,1.84,0,0,1,23.25,4.2V24.93A1.83,1.83,0,0,1,21.18,27h0a1.83,1.83,0,0,1-2.07-2.07V4.2A1.84,1.84,0,0,1,21.18,2.12Z" transform="translate(-6.67 -2.12)"/></svg>